<svg xmlns="http://www.w3.org/2000/svg" height="48px" viewBox="0 -960 960 960" width="48px" fill="#55d930"><path d="M479.91-36Q335-36 244-78.61 153-121.23 153-191q0-35.9 31.02-68.54Q215.04-292.19 271-315l64 70q-25.2 3.71-51.1 19.36Q258-210 241-192q19.49 27.2 92.12 45.6Q405.75-128 480.75-128q75.78 0 147.8-19 72.02-19 92.45-45-18-18-45.31-32.86Q648.38-239.71 623-246l65-69q55 23 87.5 55.5t32.5 67.89q0 70.51-91.59 113.06T479.91-36ZM481-179Q327.82-288.49 253.41-393.24 179-498 179-597.39q0-74.96 27.83-131.68 27.83-56.71 70.62-95.07 42.79-38.35 97.04-58.11Q428.74-902 480.31-902q51.9 0 106.48 20.09 54.57 20.09 96.87 58.28 42.29 38.18 70.32 94.74Q782-672.33 782-597.66q0 99.96-75.16 204.57Q631.67-288.49 481-179Zm.29-339q34.71 0 60.21-25.21 25.5-25.22 25.5-59.51 0-35.22-25.61-61.25Q515.79-690 481.33-690q-34.87 0-61.1 25.96Q394-638.09 394-602.96q0 35.12 26.29 60.04t61 24.92Z"/></svg>