<svg xmlns="http://www.w3.org/2000/svg" height="24px" viewBox="0 -960 960 960" width="24px" fill="#BB271A"><path d="M479.77 12Q303 12 191.5-44.11 80-100.23 80-189q0-43.06 30-80.53T196-335l94 103q-18 6-39 17t-36 24q21.49 27.2 101.28 47.1Q396.07-124 481.25-124q86.02 0 164.81-20.3T746-191q-16-14-37.81-24.86Q686.38-226.71 667-233l95-104q57 28 87.5 66.5t30.5 80.77q0 89.63-111.73 145.68Q656.54 12 479.77 12ZM481-154Q315.76-271 235.38-382.44T155-600.74q0-80.61 29.83-141.33 29.83-60.71 76.62-101.57 46.79-40.85 104.54-61.61Q423.74-926 480.31-926q56.9 0 115.53 20.93 58.63 20.92 104.87 61.77t75.77 101.49Q806-681.17 806-601.08q0 107.38-80.63 218.73Q644.73-271 481-154Zm.12-360q38.88 0 66.38-27.56 27.5-27.57 27.5-65.16 0-38.87-27.44-66.58Q520.13-701 481.5-701q-39.04 0-67.27 27.7Q386-645.59 386-607.22q0 38.38 28.12 65.8 28.12 27.42 67 27.42Z"/></svg>